# xmcd
#
# Track frame offsets:
#	183
#	14208
#	25873
#	38110
#	50515
#	62728
#	74935
#	85765
#	100938
#	111590
#	126195
#	137860
#	148965
#	161690
#	174985
#	188843
#	201368
#	212038
#	222630
#	233833
#	246135
#	258388
#
# Disc length: 3599 seconds
# Revision: 5
# Processed by: cddbd v1.5.2PL0 Copyright (c) Steve Scherf et al.
# Submitted via: dBpowerAMP V12.0
#
DISCID=610e0d16
DTITLE=Various Artist - Honky Tonk Jump Party
DYEAR=1986
DGENRE=Rock/Pop
TTITLE0=Bill Doggett Combo - Honky Tonk, Part 1
TTITLE1=The Flamingos - Jump Children
TTITLE2=Louis Jordan - House Party
TTITLE3=Jo Lutcher - Strato Cruiser
TTITLE4=Tiny Bradshaw - Breakin Up The House
TTITLE5=Wynonie Harris - Good Morning Judge
TTITLE6=Earl Bostic - Special Delivery Stomp
TTITLE7=Rockin Louie and The Mama Jammers - Club Savoy
TTITLE8=The Five Keys - Huckebuck With Jimmy
TTITLE9=Lionel Hampton - Flying Home
TTITLE10=Joe Lutcher - Joe Joe Jump
TTITLE11=Roy Brown - Mighty, Mighty Man
TTITLE12=Little Esther - The Deacon Moves In
TTITLE13=Louis Jordan - I Want You To Be My Baby
TTITLE14=Rockin Louie and The Mama Jammers - Joop's Jump
TTITLE15=Tiny Bradshaw - The Train Kept A-rollin'
TTITLE16=The Dominoes - Have Mercy Baby
TTITLE17=Earl Bostic - Harlem Nocturne
TTITLE18=Eddie 'cleanhead' Vinson - Kidney Stew
TTITLE19=Wynonie Harris - Bloodshot Eyes
TTITLE20=Roy Brown - Love Don't Love Nobody
TTITLE21=Bill Doggett Combo - Honky Tonk, Part 2
EXTD=
EXTT0=
EXTT1=
EXTT2=
EXTT3=
EXTT4=
EXTT5=
EXTT6=
EXTT7=
EXTT8=
EXTT9=
EXTT10=
EXTT11=
EXTT12=
EXTT13=
EXTT14=
EXTT15=
EXTT16=
EXTT17=
EXTT18=
EXTT19=
EXTT20=
EXTT21=
PLAYORDER=
